<svg width="1920" height="796" viewBox="0 0 1920 796" fill="none" xmlns="http://www.w3.org/2000/svg">
<path d="M1832.32 180.387L1442.51 0L1217.04 161.398L870.313 272.828L643.841 409.243H332.191L1 496.188V795H1919V180.387H1832.32Z" fill="#F59F74"/>
<path d="M413.775 355.574L221 424.264V796L1987 601.5L1724 472.5L1443.19 375.307V214.152L1340.21 230.421L1223.43 311.127L1311.88 214.152L1427.24 164.088L1443.19 71.5702L1287.59 130.921L1443.19 0L1223.43 88.8934H1192.58L949.689 214.152L768.48 254.558L714.503 311.127L413.775 355.574Z" fill="#05293C"/>
<path d="M1691.97 487.724L1920 581.944V2301H-0.00012207V349.166H63.8478L474.299 0L734.252 121.931H770.736L1058.05 293.743L1272.4 349.166L1336.25 426.759L1691.97 487.724Z" fill="#F59F74"/>
<path d="M499.788 89.6067L473.43 0L20.0737 342.614H-59V1309L692.403 1150.48L1443.81 991.952L884.614 900.918H1506.55L408.47 797.328H1905L1106.02 542.911V511.285L1042.76 495.472L979.502 442.763L1158.74 511.285L1106.02 463.847L937.33 384.782L752.824 442.763L673.75 342.614L752.824 358.427L652.664 295.175H694.837L652.664 231.923L884.614 358.427L768.639 216.11L541.961 126.504H626.306L499.788 89.6067Z" fill="#05293C"/>
</svg>
