<svg width="92" height="92" viewBox="0 0 92 92" fill="none" xmlns="http://www.w3.org/2000/svg">
<path d="M68.5055 31.285C66.9937 31.9362 65.4043 32.3897 63.7766 32.6342C64.5376 32.5036 65.6573 31.1326 66.103 30.5777C66.7801 29.7407 67.2962 28.7852 67.6249 27.7597C67.6249 27.6835 67.701 27.5747 67.6249 27.5203C67.5866 27.4993 67.5436 27.4884 67.4999 27.4884C67.4562 27.4884 67.4133 27.4993 67.3749 27.5203C65.6075 28.4782 63.7265 29.2094 61.7764 29.6964C61.7084 29.7172 61.6361 29.7191 61.5671 29.7018C61.4982 29.6845 61.4352 29.6488 61.385 29.5985C61.2332 29.4176 61.0698 29.2467 60.8958 29.0871C60.1004 28.3738 59.198 27.79 58.2216 27.3571C56.9035 26.8158 55.4798 26.5815 54.058 26.6716C52.6784 26.7588 51.3315 27.1292 50.101 27.7597C48.8893 28.4244 47.8243 29.3274 46.9701 30.4145C46.0716 31.5334 45.423 32.832 45.0677 34.2227C44.7748 35.5457 44.7416 36.913 44.9699 38.2486C44.9699 38.4771 44.9699 38.5097 44.7742 38.4771C37.0232 37.3346 30.6637 34.5818 25.4674 28.6736C25.2391 28.4125 25.1195 28.4125 24.9347 28.6736C22.6736 32.1119 23.7715 37.5522 26.598 40.2397C26.9785 40.5988 27.3698 40.947 27.7829 41.2734C26.487 41.1813 25.2228 40.8298 24.0651 40.2397C23.8476 40.0983 23.7281 40.1744 23.7172 40.4356C23.6864 40.7976 23.6864 41.1616 23.7172 41.5236C23.944 43.2586 24.6272 44.9022 25.6968 46.2863C26.7664 47.6704 28.1841 48.7453 29.8049 49.4012C30.2 49.5706 30.6117 49.6982 31.0333 49.782C29.8336 50.0184 28.6032 50.0552 27.3916 49.8908C27.1307 49.8364 27.0328 49.9779 27.1307 50.2281C28.7287 54.5804 32.1965 55.9078 34.7403 56.6477C35.0882 56.7021 35.4361 56.7021 35.8274 56.7891C35.8274 56.7891 35.8274 56.7891 35.7622 56.8544C35.0121 58.2254 31.9791 59.1502 30.5876 59.629C28.0478 60.5421 25.3399 60.8911 22.6518 60.6517C22.2279 60.5865 22.13 60.5973 22.0213 60.6517C21.9126 60.7061 22.0213 60.8258 22.1409 60.9346C22.6845 61.2937 23.228 61.6092 23.7933 61.9139C25.4762 62.8326 27.2553 63.5624 29.0983 64.09C38.643 66.7231 49.3835 64.7864 56.5475 57.6596C62.1786 52.0669 64.1571 44.3526 64.1571 36.6274C64.1571 36.3336 64.5159 36.1595 64.7224 36.0072C66.1471 34.8961 67.403 33.584 68.4511 32.1119C68.6326 31.8925 68.7257 31.6131 68.712 31.3285C68.712 31.1653 68.712 31.1979 68.5055 31.285Z" fill="white"/>
</svg>
